<svg xmlns="http://www.w3.org/2000/svg" width="547" height="85" viewBox="0 0 547 85"><path d="M381.352 48.493l-.728-2.984c0-1.473-.07-2.826-.214-4.062l-6.338.642-3.352.13-3.06-.272c-1.764-.308-3.8-.473-6.096-.494.064-1.176.158-2.66.28-4.45 2.112.258 4.17.387 6.173.387l3.42-.355c1.042.096 2.586.142 4.628.142h1.424l.498-.07c.143 0 .45-1.068.926-3.205l-.143-1.283c-.426-3.466-.64-6.22-.64-8.262v-.07l-.07-.073h-2.352l-5.758.843-5.14-.843h-3.133l-.136.046-.02-.187c.142-1.385.25-2.714.332-3.998 2.53-.374 4.752-.56 6.66-.56 2.09 0 4.488.19 7.194.57l3.205-.143c.095 0 .144-.12.144-.356l1.14-7.08-.927-5.882-3.204-.784-3.42.428-6.694-.57-3.558-.236-3.138.236c-1.15.093-2.272.164-3.364.21a247.07 247.07 0 0 0-4.84-.21l-4.485.284h-1.638l-4.416.144-10.256-.214-3.205.712c-.096.047-.404 1.162-.927 3.347.333 2.328.5 3.706.5 4.13v2.21c0 1.47.917 2.133 1.06 3.368l5.49.05 3.206.285 5.263.306c1.766.307 1.74.023 4.038.044-.064 1.178-.158 2.66-.28 4.45-2.112-.257-4.17.385-6.172.385l-4.244-.654c-1.045-.096-1.762.097-3.804.097h-1.425l-.498.07c-.143 0-.45 1.07-.926 3.205l-.136 3.16c.428 3.465.92 4.343.92 6.385v.07l.07.072h2.352l4.345-.143 6.553.143h3.134l.136-.045.02.188c-.142 1.385-.25 2.715-.33 3.997-2.532.375-4.752.562-6.662.562-2.087 0-4.486-.19-7.192-.57l-3.205.143c-.095 0-.143.117-.143.354l-.926 9.76.712 3.204 3.205.784 3.42-.43 6.694.57 3.296.06 3.4-.06a85.503 85.503 0 0 1 3.365-.21c1.243.07 2.855.14 4.837.21l4.487-.284 3.506.215 5.506-.257 7.296.112 3.205-.712c.096-.047.404-1.163.926-3.348-.33-2.327.232-2.928.232-3.355zM28.5 4.516h6.618c3.036.285 4.91.546 5.622.783 1.423.332 2.633.782 3.63 1.35 3.273 1.567 4.933 2.445 4.98 2.634l2.064 2.42v.213a59.19 59.19 0 0 1-3.985 5.266c-1.663 1.377-3.015 2.776-4.058 4.2l-2.348 2.846h-.07c-.997-1.85-1.566-2.776-1.71-2.776-1.423-.427-2.49-.712-3.202-.854-1.755 0-3.96.167-6.618.498l-2.917 1.21-2.206 2.42-1.138 3.06.07 3.486-.14 3.273a77.388 77.388 0 0 0 3.557 5.693c2.133.808 3.344 1.21 3.628 1.21 2.42.19 4.413.38 5.978.57 1.85-1.14 2.87-1.827 3.06-2.064l1.637-2.277c2.182 1.99 3.416 3.392 3.7 4.197.285.475 1.47 1.804 3.56 3.985a63.19 63.19 0 0 1 3.344 4.342c-1.28 1.756-2.135 2.823-2.562 3.202-1.993 1.47-3.156 2.206-3.487 2.206-1.66.712-3.796 1.353-6.405 1.92h-2.35l-4.625.144-.07.07h-.072l-3.56-.354-3.13.07h-.356c-2.04-.475-3.37-.878-3.985-1.21l-6.405-3.13c-1.756-1.47-2.752-2.35-2.99-2.634-1.28-1.612-2.276-3.083-2.988-4.412l-2.562-4.2c-.522-2.134-.783-3.89-.783-5.265 0-.995-.167-2.774-.498-5.337 0-3.558.473-7.282 1.422-11.172a30.413 30.413 0 0 1 3.06-5.622c.095-.284 1.114-1.375 3.06-3.273 1.85-1.612 2.94-2.443 3.273-2.49 1.233-.522 3.178-1.4 5.835-2.634 4.51-1.042 6.88-1.564 7.12-1.564zM88.49 5.94c2.325.475 3.488.807 3.488.996l2.99 6.333c.568 2.325 1.137 3.96 1.707 4.91.427.903 1.068 2.61 1.922 5.125a49.508 49.508 0 0 1 3.487 7.33l3.345 8.824c.52 2.134 1.185 4.03 1.992 5.692.237.38.64 1.756 1.21 4.127 1.185 2.135 1.78 3.725 1.78 4.77l.355 1.635c-1.565.38-3.796.57-6.69.57l-.14.07-10.96-.64c-.143-.237-.5-1.59-1.067-4.058l-1.352-3.272-3.132.568-3.13-.213-6.264.355-3.06-.71c-.665 2.75-1.377 5.192-2.135 7.328l-.07.07c-2.896.24-6.288.357-10.177.357H58.533l-3.487-.784v-.07c1.09-2.75 2.467-6.523 4.128-11.315 1.28-2.94 2.252-5.69 2.917-8.254.997-1.945 2.065-4.507 3.203-7.687.522-1.14 1.21-3.013 2.064-5.623l3.202-6.262 2.205-6.476 1.78-2.92c2.988-.378 5.266-.57 6.83-.57l3.488.214 3.628-.425zm-5.62 18.005c-.808 1.66-1.472 3.486-1.993 5.48-.95 2.228-1.423 3.51-1.423 3.84l-.356 2.635h.07l3.417.072 4.27-.214c-.71-1.708-1.21-3.37-1.495-4.982 0-.52-.57-2.11-1.708-4.768l-.712-2.063h-.07zM126.99 5.938c1.85.285 4.175.475 6.975.57l3.63-.498 3.486.996h1.07c3.888 0 6.83.143 8.823.427 1.897.76 2.94 1.187 3.13 1.28 2.088 1.804 3.346 3.11 3.772 3.915.664.76 1.376 1.97 2.135 3.63l.498 3.13-.143 3.13h-.07v.072l.355 3.345c-.57 2.467-.95 3.7-1.14 3.7a80.104 80.104 0 0 0-4.34 4.698l-3.203 1.067c1.803 2.373 3.63 5.337 5.48 8.896 1.708 1.756 2.61 2.918 2.704 3.487l4.27 7.473c-1.803.57-3.272.854-4.41.854l-1.78.213c-1.708-.143-4.91-.31-9.607-.498l-3.345-.5c-1.565-3.557-3.108-6.427-4.625-8.61-1.376-2.228-2.847-5.146-4.413-8.752h-.07l-.428 3.558.143 3.488-.213 3.486.355 3.487-.142 3.346c-1.565.285-3.7.5-6.405.64-2.8 0-5.718-.212-8.753-.64l-.783-.213c-.19-.996-.333-2.656-.427-4.98 0-1.187-.096-2.895-.285-5.125l.356-13.663.07-.214-.284-3.558.356-3.416c-.238-2.277-.356-3.7-.356-4.27v-5.693c0-2.515.237-4.957.71-7.33.904 0 3.206-.307 6.907-.925zm8.61 13.593h-.07v.072l-.285 3.7.498 3.915 3.13.213 3.915-1.21 1.993-3.06-1.494-3.487h-2.704l-4.768-.143h-.213zM187.124 5.938l3.273.285 3.416-.285 6.69.57 3.415-.427 3.202.784.712 3.203-.925 9.75c0 .238-.048.356-.143.356l-3.202.142c-2.704-.38-5.1-.57-7.188-.57-2.04 0-4.436.214-7.187.642l.143 4.127.213-.07h3.13l6.548.14 4.342-.14h2.349l.072.07v.07c0 2.042.213 4.793.64 8.256l.142 1.28c-.474 2.137-.782 3.204-.925 3.204l-.5.07h-1.422c-2.04 0-3.583-.047-4.625-.143l-3.417.357c-2.277 0-4.625-.166-7.045-.498v4.554h.073c2.514 0 4.72.167 6.618.498l3.203-.143 3.203.284 6.333-.64a35.42 35.42 0 0 1 .212 4.056v2.206c0 .427.166 1.804.498 4.128-.522 2.182-.83 3.298-.925 3.344l-3.202.713-10.248-.214-4.412.143h-1.637l-4.483.284c-5.314-.19-7.97-.38-7.97-.57-1.756-.38-2.633-.615-2.633-.71-.238-3.036-.356-5.718-.356-8.042v-.072c0-2.704.166-5.693.498-8.966l-.355-3.417.07-3.415-.212-3.56c.38-5.31.57-8.585.57-9.82l-.285-4.056c0-2.8.213-5.147.64-7.045l2.847-.497 3.06.07h.57c2.086 0 4.292-.094 6.617-.285zM235.587 4.516l3.416.427 3.558-.214c2.183.38 4.58.71 7.19.995 2.228 1.044 3.46 1.685 3.7 1.922 1.375 1.043 2.49 2.04 3.344 2.99l1.21 1.422v.07l-5.694 6.476c-1.566 1.66-2.942 2.895-4.127 3.7l-.427.356c-3.32-2.656-5.29-3.985-5.907-3.985l-2.918-.284c-1.756.332-2.633.522-2.633.57l-1.566 1.85c3.273 2.23 4.957 3.345 5.053 3.345 2.893.57 5.337 1.187 7.33 1.85 2.23 1.044 3.392 1.685 3.487 1.92 1.945 1.615 3.534 3.252 4.768 4.91l1.28 3.204v3.273c-.474 5.314-.877 7.97-1.21 7.97 0 .333-.995 2.16-2.988 5.48-4.127 2.61-6.666 3.96-7.615 4.057-.902.38-2.42.664-4.556.854l-.783.07-4.553-.213h-4.84c-3.13-.284-4.696-.568-4.696-.854l-5.763-2.42c-1.566-1.044-2.705-1.993-3.416-2.847-.806-.807-1.21-1.28-1.21-1.424 1.424-1.994 2.253-3.084 2.492-3.274 1.754-1.328 2.775-2.158 3.06-2.49.95-1.66 1.78-2.8 2.49-3.416 1.282-1.186 1.994-1.78 2.136-1.78 2.23 1.85 4.222 3.18 5.978 3.986.284.38 1.256.568 2.917.568l1.92.07 3.773-2.276c-1.52-1.66-2.374-2.49-2.562-2.49a92.56 92.56 0 0 1-6.405-2.704c-2.374-.427-3.678-.76-3.915-.997-1.234-.854-3.084-2.04-5.55-3.558-1.662-2.325-2.492-3.654-2.492-3.986-.57-1.328-.854-2.063-.854-2.206.284-2.61.426-4.886.426-6.832.52-2.514 1.14-4.555 1.85-6.12 0-.285.877-1.28 2.633-2.99 1.992-1.8 3.25-2.703 3.77-2.703 1.282-.712 3.085-1.4 5.41-2.064l3.487-.214zM276.373 5.684c2.515 0 5.005.238 7.473.71l2.775.072h3.772l3.7.498 3.417-.07c2.607.472 4.956 1.183 7.044 2.13 3.89 2.085 5.835 3.317 5.835 3.695 1.47 1.515 2.348 2.677 2.633 3.48.52.76 1.14 2.25 1.85 4.478.854 2.037 1.28 3.363 1.28 3.978 0 1.66.144 3.65.428 5.97-.237 2.56-.426 5.046-.568 7.462-.616 2.322-1.067 3.553-1.352 3.695l-3.56 5.613c-1.85 1.895-2.987 2.913-3.415 3.056-1.565 1.23-4.198 2.535-7.9 3.908l-3.913.71H292.883c-2.895.223-6.12.39-9.68.5l-4.98.497h-1.85c-2.943-.258-5.243-.543-6.904-.854-.19-1.232-.332-3.67-.426-7.318l-.498-3.056.427-3.84c0-3.03-.19-6.394-.57-10.09l.214-7.39c0-1.42-.07-3.6-.213-6.538l.284-4.05-.07-2.772c.284-2.13.45-3.198.497-3.198l7.258-1.278zM284.77 20.7v.072c-.236 2.695-.354 4.894-.354 6.594l.498 3.475-.498 3.476c0 2.13.143 4.35.427 6.666h6.477c2.893-.613 4.34-1.062 4.34-1.347 1.66-1.37 2.49-2.15 2.49-2.34.95-2.46 1.425-4.28 1.425-5.46l.143-1.35c-.333-2.552-.57-3.83-.712-3.83-.9-1.7-1.472-2.646-1.708-2.835-1.28-1.418-1.97-2.127-2.064-2.127-2.755-.662-6.24-.993-10.463-.993zM397.263 5.684l11.955.356h1.922l3.558.782c1.945-.33 3.132-.498 3.56-.498h1.494c1.423 0 2.632.214 3.63.64 3.272 1.045 4.91 1.71 4.91 1.994 1.28.854 2.655 2.16 4.127 3.914.187 0 .662 1.258 1.422 3.772l.854 6.69v2.704c0 .238-.593 1.708-1.778 4.412-.523 1.14-1.424 2.61-2.704 4.413-1.946 1.565-3.535 2.562-4.77 2.988-.52.428-1.494.642-2.917.642l-4.91.854h-1.922l-5.337.213-.284 2.988.07 1.85v2.918l-.07 1.495.213 3.203c-.285 1.993-.45 2.99-.498 2.99-1.614.474-3.655.83-6.12 1.066-2.563 0-4.77-.215-6.62-.642-2.182-.33-3.272-.545-3.272-.64l.143-3.203c-.427-2.04-.64-3.203-.64-3.487V45.82l-.285-8.11.498-3.417-.143-3.56.143-3.344-.498-3.56c.143-5.93.332-9.843.57-11.742.235-.996.355-1.754.355-2.277V6.68c.14-.142 1.254-.473 3.343-.996zM410 19.277v.07c0 2.42.072 4.96.214 7.616 2.515 0 4.104-.213 4.77-.64 1.28-.285 1.92-.498 1.92-.64l1.21-2.848c-.57-1.66-.973-2.656-1.21-2.99-1.9-.284-4.2-.473-6.904-.568zM458.89 5.684c2.183.522 3.274.854 3.274.997V9.53l-.214 5.124v2.135l-.07.07.07.072v.14c0 2.278.143 4.556.427 6.833l-.213 3.416.07 3.06.072.355c-.38 3.273-.57 5.6-.57 6.975l.356 3.415 3.202.214 3.273-.144 3.203.5 6.547-.855.57 3.772-.215 3.63.214 3.486c-.522 2.278-.83 3.417-.925 3.417l-.426.07c-1.472 0-3.465.167-5.98.498l-6.403.356-3.273-.428c-2.515.238-4.696.355-6.547.355-1.187 0-3.582-.26-7.188-.783l-2.562-.143-.07-.212.07-3.132-.64-3.558.57-3.345c0-5.693-.097-10.366-.286-14.02l.143-5.765v-.285c0-1.803-.07-4.46-.214-7.97 0-2.42.166-4.673.498-6.76l-.14-3.275c0-.095 1.28-.26 3.842-.498l2.775-.498 3.345.213 3.418-.28zM491.98 5.684c4.176 0 6.88.213 8.114.64 1.232.238 1.85.475 1.85.712.52 1.47 2.11 4.152 4.77 8.042l2.49 5.835h.07c1.896-4.03 3.084-6.333 3.56-6.903.757-.9 2.086-3.32 3.983-7.26 2.23-.614 4.104-.924 5.623-.924l.71-.07c4.224.426 7.45.64 9.68.64 2.136.332 3.202.545 3.202.64-2.752 3.558-4.437 6.097-5.052 7.615-.333.666-1.424 2.374-3.274 5.125-.617 1.045-1.826 2.824-3.63 5.337-.427.997-1.565 2.445-3.415 4.34-1.376 2.374-2.467 3.986-3.272 4.84-.428.57-.64.974-.64 1.21l-.144 3.132c.143 2.516.355 4.722.64 6.618l-.213 3.345.072 2.99v.14c-.285 2.28-.498 3.418-.64 3.418-.666.284-4.176.498-10.533.64l-2.35.285-3.273-.925-.284-3.203c.188-2.277.284-4.01.284-5.194v-.5l.07-.924-.497-3.345.64-3.346-.213-3.416c-1.52-1.85-2.775-3.7-3.77-5.55-2.753-3.654-4.723-6.524-5.907-8.612-1.234-1.708-2.23-3.32-2.99-4.84a111.94 111.94 0 0 0-4.27-6.546l-1.067-3.06c0-.047 2.088-.332 6.263-.854l3.415-.072z"/><g><path d="M535.647 43.488c1.708.222 2.562.364 2.562.428 1.106.728 1.945 1.424 2.515 2.088.633.664.95 1.044.95 1.14l.142 2.42c-.254 1.804-.443 2.705-.57 2.705-.633 1.297-1.028 1.945-1.186 1.945-1.487.854-2.547 1.28-3.18 1.28l-1.187.286c-1.772-.094-2.657-.188-2.657-.284-1.33-1.044-2.47-2.12-3.418-3.228l-.143-.19-.095-2.515c.126-1.866.27-2.8.428-2.8.664-1.14 1.106-1.804 1.33-1.994l1.992-1.188 2.517-.094z"/></g><g><path d="M17.013 64.29c.547 0 .924.055 1.132.164l1.248.41c.394.24.837.536 1.33.886l1.066 1.248c.262.46.393.723.393.787.066.438.153.926.263 1.46l-.082.82.13.872c-.186.524-.4 1.05-.64 1.575-.316.273-.508.448-.574.525.536.11.837.164.903.164l.82-.196c.044.077.126.323.247.738l-.065 1.625c-.11.416-.175.64-.197.673-.46.077-.963.143-1.51.197-.82-.076-1.412-.115-1.773-.115h-.476l-.904.066-.77-.1c-.45.066-.718.1-.805.1a13.527 13.527 0 0 0-1.64-.164c-.35-.088-.875-.16-1.576-.214-.47-.22-.963-.432-1.477-.64-.46-.307-.706-.48-.74-.525-.404-.427-.606-.69-.606-.788l-.623-1.23c-.088-.35-.164-1.166-.23-2.446v-.77c.11-.8.28-1.45.51-1.953.152-.338.333-.645.54-.918.022-.078.274-.368.756-.872.832-.59 1.307-.886 1.428-.886 1.194-.296 2.15-.443 2.874-.443l1.05-.05zm-2.987 6.745c.12.56.203.837.246.837.427.395.662.59.706.59.295.22.492.33.59.33l.64.082c.603-.066.904-.132.904-.197.328-.186.52-.312.574-.378.36-.493.542-.783.542-.87.13-.23.197-.39.197-.477l.05-.69c-.066-.524-.132-.857-.198-1-.11-.35-.19-.524-.246-.524-.37-.384-.64-.608-.803-.675a.81.81 0 0 0-.51-.197c-.032-.02-.207-.05-.524-.082-.58.022-.87.06-.87.115a4.59 4.59 0 0 0-.92.707.438.438 0 0 0-.228.41c-.1.536-.15 1.21-.15 2.018zM33.672 64.618c.426 0 .93.087 1.51.263l.017.017v.018c0 .492.048.974.146 1.443-.065.492-.1 1.057-.1 1.69v.526l.116.886-.05.755.017.787c-.1.472-.148.74-.148.805v.64l.017.115-.494 1.658a13.97 13.97 0 0 1-1.067 1.297l-.592.492c-.48.14-1.286.32-2.413.54l-1.05.017h-.28c-.568 0-1.252-.11-2.05-.328-.537-.198-.854-.35-.952-.46-.24-.132-.46-.313-.656-.542-.285-.284-.433-.487-.443-.607-.416-.874-.624-1.427-.624-1.657l-.1-.442-.032-.853.016-.592-.098-.87.082-.754-.148-.788.148-2.265.016-.017v-.017l-.115-.77c.076-.43.13-.663.163-.708.722-.152 1.236-.23 1.543-.23.886 0 1.646.065 2.28.197v1.41l-.08 1.02.147 1.59-.017.165v.51c0 .098-.04.42-.115.97.088.93.132 1.492.132 1.688.394.46.602.69.624.69l.82.064c.613-.044.92-.083.92-.115l.542-.64.033-1.134v-.49c0-.165.034-.454.1-.87v-.066l-.1-2.38.05-.82-.082-.788c.066-.535.11-.804.13-.804.406-.11.64-.164.707-.164h.657l.87-.08zM43.848 64.618c.536.11.804.187.804.23l.69 1.46c.13.536.262.914.393 1.133.1.208.246.603.443 1.183.317.547.585 1.11.804 1.69l.77 2.035c.122.492.274.93.46 1.312.055.088.148.405.28.952.273.492.41.86.41 1.1l.082.378c-.36.088-.875.13-1.542.13l-.033.018-2.53-.147c-.032-.054-.114-.366-.245-.935l-.31-.755-.723.13-.722-.048-1.444.082-.707-.164a16.588 16.588 0 0 1-.494 1.69l-.016.017a29.04 29.04 0 0 1-2.347.082H36.937l-.804-.182v-.017c.25-.634.57-1.504.952-2.608.295-.68.52-1.313.673-1.904.23-.448.476-1.04.738-1.772.12-.263.28-.694.476-1.297l.74-1.445.508-1.493.41-.673c.69-.09 1.215-.132 1.576-.132l.804.05.838-.1zM42.55 68.77c-.185.385-.338.805-.458 1.265-.22.515-.328.81-.328.886l-.083.608h.018l.788.017.984-.05a5.474 5.474 0 0 1-.345-1.148c0-.12-.13-.486-.394-1.1l-.163-.476h-.016zM53.22 64.618c.502.12.754.196.754.23v.655l-.05 1.182v.492l-.016.018.017.016v.034c0 .525.033 1.05.1 1.576l-.05.787.017.706.016.082c-.087.755-.13 1.29-.13 1.608l.08.788.74.05.755-.033.74.115 1.51-.197.13.87-.05.837.05.805c-.12.525-.19.788-.213.788l-.1.016c-.338 0-.798.04-1.377.116l-1.477.082-.755-.1a16.26 16.26 0 0 1-1.51.083c-.272 0-.825-.06-1.657-.18l-.59-.032-.018-.05.017-.722-.148-.82.13-.772c0-1.313-.02-2.39-.064-3.233l.033-1.33v-.064c0-.415-.016-1.028-.05-1.84 0-.556.04-1.075.116-1.558l-.034-.755c0-.022.295-.06.887-.114l.64-.116.77.05.786-.066zM60.605 64.618c1.15.032 1.723.065 1.723.1.405.087.607.142.607.163l.033.888-.082 1.985v.196l.05.886a18.62 18.62 0 0 0-.066 1.38c0 .645.038 1.69.115 3.134v.23l-.1.836.083.805c-.044.526-.082.79-.115.79-.46.12-.717.18-.77.18h-.56l-.935.05c-.536 0-1.012-.072-1.428-.214l-.115-.805.082-.82c-.033-.58-.077-1.11-.13-1.592l.08-.804-.032-.805.033-.772-.033-.804.065-1.593-.065-.803v-.196c0-.722.043-1.46.13-2.216.724-.13 1.2-.196 1.43-.196zM71.34 64.618l.853.1.673-.018c.536.087.804.137.804.147l.05.656-.018 1.494c-.022.668-.055 1-.098 1l-.64-.113-.92.05h-.787l-.41.015c.098.68.147 1.22.147 1.624l-.065.805c.02.995.048 1.837.08 2.526v.345c0 .308-.054.686-.163 1.134l.065.804-.082.82c-.503.045-.985.12-1.444.23-.492-.076-.804-.115-.936-.115h-.542c-.503-.065-.755-.114-.755-.147v-.328c0-.34-.028-.755-.083-1.247l.066-.804-.066-.804.083-.805-.165-.804.066-.805-.033-.805c.022-.645.056-1.17.1-1.575l-2.07-.114-.64.05v-.018l-.212-.722c.033-.624.05-1.154.05-1.592.075-.537.13-.805.163-.805l.723-.164 1.51.065.016.017h.016l.788-.066.788.065 3.087-.097zM75.984 64.618c.962 0 1.586.05 1.87.147.286.055.428.11.428.164.12.34.487.957 1.1 1.854l.575 1.346h.017c.438-.93.71-1.46.82-1.592.175-.21.48-.767.92-1.675.513-.142.945-.214 1.295-.214l.163-.017c.974.098 1.718.147 2.232.147.492.077.738.126.738.147-.635.82-1.023 1.406-1.165 1.756-.077.154-.33.548-.755 1.182-.142.24-.42.652-.837 1.23-.1.23-.36.564-.788 1.002-.318.547-.57.92-.755 1.116-.098.132-.147.225-.147.28l-.033.72c.033.58.082 1.09.147 1.527l-.05.77.018.69v.033c-.065.525-.115.788-.147.788-.153.066-.962.115-2.428.148l-.542.065-.755-.213-.065-.74c.043-.524.065-.923.065-1.197v-.114l.017-.215-.115-.77.147-.772-.05-.787a8.107 8.107 0 0 1-.87-1.28c-.634-.843-1.088-1.505-1.36-1.986a8.027 8.027 0 0 1-.69-1.116 25.85 25.85 0 0 0-.985-1.51l-.247-.705c0-.013.48-.078 1.444-.198l.787-.014zM94.12 70.148c.568.077.853.132.853.165l.115.82c-.077.755-.115 1.33-.115 1.724h-.786l-1.774.114a25.58 25.58 0 0 1-1.707-.13v-.706l-.082-1.018c.043-.558.076-.837.098-.837l.952-.05c.788.01 1.313.022 1.576.032l.87-.114zM104.492 64.29l.788.1.82-.05c.504.087 1.057.163 1.66.228.513.24.797.39.852.443.317.242.575.472.77.69l.28.328v.017l-1.313 1.493c-.362.384-.68.668-.953.854l-.1.082c-.765-.612-1.22-.918-1.36-.918l-.674-.066c-.405.076-.607.12-.607.13l-.36.43c.754.513 1.143.77 1.165.77.668.13 1.232.273 1.69.426.515.24.783.39.805.443.448.37.815.75 1.1 1.132l.295.738v.755c-.11 1.226-.203 1.84-.28 1.84 0 .075-.23.497-.688 1.263-.952.602-1.538.913-1.756.936-.208.087-.558.152-1.05.196l-.18.017-1.05-.05h-1.117c-.723-.065-1.084-.13-1.084-.196l-1.33-.557c-.36-.24-.624-.46-.788-.657-.187-.186-.28-.295-.28-.328.33-.46.52-.71.576-.755.404-.306.64-.498.706-.574.22-.384.41-.647.575-.79.295-.272.46-.41.492-.41.514.428.974.734 1.378.92.066.088.29.132.673.132l.443.016.87-.524c-.35-.383-.546-.575-.59-.575a21.648 21.648 0 0 1-1.478-.624c-.547-.1-.848-.175-.902-.23a30.82 30.82 0 0 0-1.28-.82c-.383-.536-.575-.842-.575-.92-.13-.305-.197-.475-.197-.508.065-.602.1-1.127.1-1.576.12-.58.26-1.05.426-1.41 0-.066.202-.297.607-.69.46-.415.75-.624.87-.624.296-.164.712-.322 1.248-.476l.804-.053zM114.16 64.618l.754.065.788-.065 1.543.132.788-.1.74.182.163.738-.213 2.248c0 .055-.01.082-.033.082l-.74.033a12.007 12.007 0 0 0-1.657-.13c-.47 0-1.023.048-1.658.145l.033.953.05-.017h.72l1.51.033 1.002-.033H118.49l.018.018v.017c0 .47.05 1.105.147 1.904l.033.296c-.11.493-.18.74-.213.74l-.115.015h-.328c-.47 0-.826-.01-1.067-.03l-.788.08c-.525 0-1.067-.037-1.625-.114v1.05h.017c.58 0 1.087.04 1.525.115l.738-.03.74.064 1.46-.147c.032.284.048.597.048.936v.51c0 .098.04.415.116.95-.12.504-.192.76-.213.772l-.74.164-2.362-.05-1.017.032h-.377l-1.034.065c-1.226-.044-1.838-.088-1.838-.13-.405-.09-.607-.144-.607-.166-.055-.698-.083-1.317-.083-1.853v-.016c0-.623.04-1.312.115-2.067l-.083-.788.016-.788-.05-.82c.09-1.225.132-1.98.132-2.265l-.065-.936c0-.646.05-1.188.147-1.625l.657-.113.706.016h.13c.484 0 .993-.02 1.53-.065zM124.04 64.618c.503.12.755.196.755.23v.655l-.05 1.182v.492l-.016.018.016.016v.034c0 .525.033 1.05.1 1.576l-.05.787.017.706.016.082c-.088.755-.132 1.29-.132 1.608l.082.788.74.05.754-.033.74.115 1.51-.197.13.87-.05.837.05.805c-.12.525-.19.788-.213.788l-.098.016c-.34 0-.8.04-1.378.116l-1.477.082-.755-.1a16.26 16.26 0 0 1-1.51.083c-.273 0-.826-.06-1.658-.18l-.59-.032-.018-.05.017-.722-.148-.82.13-.772c0-1.313-.02-2.39-.064-3.233l.034-1.33v-.064c0-.415-.016-1.028-.05-1.84 0-.556.04-1.075.116-1.558l-.033-.755c0-.022.295-.06.887-.114l.64-.116.77.05.786-.066zM133.066 64.618l.755.065.79-.065 1.542.132.788-.1.74.182.163.738-.213 2.248c0 .055-.01.082-.033.082l-.74.033a12.007 12.007 0 0 0-1.657-.13c-.47 0-1.023.048-1.658.145l.033.953.05-.017h.72l1.51.033 1.002-.033H137.398l.017.018v.017c0 .47.05 1.105.147 1.904l.033.296c-.11.493-.18.74-.213.74l-.115.015h-.328c-.472 0-.827-.01-1.068-.03l-.788.08c-.525 0-1.067-.037-1.625-.114v1.05h.016c.58 0 1.088.04 1.526.115l.738-.03.74.064 1.46-.147c.032.284.048.597.048.936v.51c0 .098.04.415.115.95-.12.504-.192.76-.213.772l-.74.164-2.362-.05-1.018.032h-.377l-1.034.065c-1.227-.044-1.84-.088-1.84-.13-.404-.09-.606-.144-.606-.166-.055-.698-.083-1.317-.083-1.853v-.016c0-.623.04-1.312.116-2.067l-.082-.788.016-.788-.05-.82c.09-1.225.132-1.98.132-2.265l-.065-.936c0-.646.05-1.188.147-1.625l.657-.113.707.016h.13c.484 0 .993-.02 1.53-.065zM144.72 64.29h1.526c.7.065 1.132.126 1.296.18.33.077.607.18.837.313.754.36 1.137.563 1.148.607l.476.558v.05c-.262.394-.57.798-.92 1.214-.382.318-.694.64-.935.97l-.543.655h-.017c-.23-.427-.36-.64-.394-.64a8.798 8.798 0 0 0-.74-.197c-.404 0-.913.038-1.525.114l-.672.28-.51.558-.262.705.017.805-.033.755c.24.427.514.864.82 1.313.493.186.772.278.838.278.558.044 1.018.088 1.38.132.426-.263.66-.42.705-.477l.377-.524c.503.458.788.78.854.967.066.11.34.416.82.92.285.34.543.672.772 1-.295.405-.493.65-.59.74-.46.338-.73.508-.805.508-.382.164-.875.312-1.477.443h-.542l-1.066.032-.016.017h-.017l-.82-.082-.722.017h-.082c-.47-.11-.777-.203-.92-.28l-1.476-.72c-.405-.34-.635-.543-.69-.608a6.962 6.962 0 0 1-.688-1.018l-.59-.97c-.122-.49-.182-.895-.182-1.213 0-.23-.038-.64-.115-1.23 0-.82.11-1.68.328-2.577.197-.47.432-.903.706-1.297.02-.067.256-.318.705-.757.427-.37.678-.562.755-.574.285-.12.733-.323 1.346-.608 1.042-.242 1.59-.363 1.644-.363zM157.374 64.618l.854.1.672-.018c.536.087.804.137.804.147l.05.656-.018 1.494c-.022.668-.055 1-.098 1l-.64-.113-.92.05h-.787l-.41.015c.1.68.148 1.22.148 1.624l-.065.805c.02.995.05 1.837.082 2.526v.345c0 .308-.055.686-.164 1.134l.066.804-.082.82c-.503.045-.985.12-1.444.23-.492-.076-.804-.115-.936-.115h-.542c-.503-.065-.755-.114-.755-.147v-.328c0-.34-.028-.755-.083-1.247l.066-.804-.066-.804.083-.805-.165-.804.066-.805-.033-.805c.02-.645.055-1.17.098-1.575l-2.068-.114-.64.05v-.018l-.213-.722c.033-.624.05-1.154.05-1.592.075-.537.13-.805.163-.805l.722-.164 1.51.065.016.017h.017l.788-.066.788.065 3.088-.097zM162.593 64.618c1.15.032 1.723.065 1.723.1.405.087.607.142.607.163l.033.888-.082 1.985v.196l.05.886a18.62 18.62 0 0 0-.066 1.38c0 .645.038 1.69.115 3.134v.23l-.1.836.083.805c-.044.526-.082.79-.115.79-.458.12-.716.18-.77.18h-.558l-.936.05c-.536 0-1.012-.072-1.428-.214l-.115-.805.082-.82c-.033-.58-.077-1.11-.13-1.592l.08-.804-.032-.805.033-.772-.033-.804.065-1.593-.065-.803v-.196c0-.722.043-1.46.13-2.216.724-.13 1.2-.196 1.43-.196zM173.13 64.29h.59c.647.12 1.09.196 1.33.23.273 0 .613.075 1.018.23.11 0 .334.136.673.41.603.403.936.65 1.002.737.383.394.662.744.837 1.05.054.065.223.443.508 1.133.175.35.263.558.263.624v.656l.116 1.838c-.098.646-.22 1.22-.36 1.724-.242.547-.434.902-.576 1.066-.065.154-.285.4-.656.74l-.886.787c-.46.175-.963.41-1.51.705-.503.132-.843.197-1.018.197h-1.346c-.13 0-.454.05-.968.147-.59-.11-1.434-.312-2.528-.607l-1.428-1.018c-.383-.428-.575-.663-.575-.706-.492-.94-.738-1.43-.738-1.46l-.246-1.61.05-.836-.033-.903.017-.755c.263-.667.394-1.028.394-1.083.076-.405.158-.64.246-.706.25-.403.427-.628.525-.672.272-.175.584-.448.935-.82a.818.818 0 0 1 .443-.33c.284-.163.624-.3 1.018-.41l1.132-.31h.575l1.197-.05zm-.148 3.644l-.77-.05c-.428.253-.668.405-.723.46-.318.427-.477.673-.477.738-.142.307-.213.51-.213.607l-.033.655c.033.613.066.92.1.92.13.416.24.673.327.77.208.34.36.51.46.51.35.165.568.247.656.247l.673.065c.613-.033.92-.076.92-.132.415-.142.623-.234.623-.278.284-.45.427-.695.427-.74.13-.35.25-.81.36-1.377-.043-.592-.108-.957-.196-1.1-.088-.307-.192-.51-.312-.607-.22-.285-.405-.454-.558-.51l-.476-.246-.788.067zM190.373 64.618c.56 0 .94.05 1.138.147.177.033.265.076.265.13.055.57.082 1.118.082 1.644v.72c.043.428.087 1.27.13 2.528v.278l-.065 1.363v.294l.017 1.083.016.017v.017c-.1.482-.148 1.117-.148 1.905v.394c-.044.623-.082.935-.115.935a8.734 8.734 0 0 1-1.43.13l-.15-.015h-.443c-.45 0-1.042-.055-1.776-.164-.187-.438-.4-.788-.642-1.05-.11-.12-.27-.45-.478-.986a37.678 37.678 0 0 1-1.185-2.035 11.015 11.015 0 0 1-.758-1.198l-.05-.032v.017l.034.705-.082.77c.12 1.194.18 1.954.18 2.282l-.098.787.164.74a4.76 4.76 0 0 1-1.444.212l-1.494-.034a7.93 7.93 0 0 1-.673-.196c-.045-.57-.1-1.09-.165-1.56l.017-.804.016-.017-.016-.066v-.395l.05-1.117.016-.017-.017-.065v-.573c0-.1-.037-.416-.114-.952l.082-2.544c.043 0 .082-.868.115-2.608.01 0 .017-.148.017-.443l1.477-.18 1.674.097.575.115c.252.45.558.902.92 1.36.437.986.693 1.522.77 1.61.372.438.777 1.105 1.215 2.002.175.46.273.695.295.706.033-.032.082-.284.147-.755v-.1l-.098-.803v-.69l-.033-.935.034-.756v-.048l-.1-1.592c0-.02.22-.094.66-.213l.726.064.743-.112zM203 63.65c.722.064 1.204.158 1.444.278.273.077.673.252 1.198.525l.016.017c-.153.535-.28.875-.377 1.018-.228.35-.354.662-.376.936-.033.186-.12.39-.263.607-.163.285-.245.48-.245.59-.065.483-.147.778-.246.888-.165.252-.324.662-.477 1.23-.24.438-.432.903-.574 1.396-.275.56-.45.958-.526 1.198-.1.273-.273.684-.525 1.23-.35.92-.537 1.456-.56 1.61-.087.458-.202.76-.344.9a3.438 3.438 0 0 0-.33.756 4.05 4.05 0 0 1-.146.378c-.69-.033-1.215-.104-1.576-.214a.94.94 0 0 1-.492-.23c-.318-.207-.487-.327-.51-.36.11-.525.24-.93.395-1.215.077-.152.246-.568.51-1.247.218-.394.328-.68.328-.854.076-.372.17-.635.28-.788.14-.24.327-.673.557-1.297.295-1.017.52-1.618.673-1.804.11-.175.23-.54.36-1.1.33-.46.537-.875.625-1.248l.328-1.033c.22-.383.405-.848.558-1.396.174-.514.273-.77.294-.77zM211.732 64.618c.58 0 1.154.055 1.723.164l.64.017h.87l.854.114.787-.018c.602.11 1.143.273 1.625.492.897.48 1.346.766 1.346.852.34.35.542.618.607.804.12.175.263.52.427 1.032.197.47.295.775.295.918 0 .383.033.842.098 1.377-.055.59-.098 1.164-.13 1.722-.143.535-.247.82-.313.853l-.82 1.294c-.428.437-.69.67-.79.704-.36.284-.967.585-1.82.9l-.904.165h-.689c-.668.05-1.413.088-2.233.113l-1.15.115h-.426a17.45 17.45 0 0 1-1.59-.197c-.044-.283-.078-.846-.1-1.687l-.114-.705.1-.885c0-.7-.045-1.475-.132-2.327l.05-1.704c0-.328-.018-.83-.05-1.508l.066-.935-.017-.64c.065-.492.104-.737.115-.737l1.674-.295zm1.936 3.463v.018a17.93 17.93 0 0 0-.082 1.52l.115.802-.114.8c0 .492.033 1.005.1 1.54H215.178c.667-.143 1-.246 1-.312.384-.316.576-.496.576-.54.22-.566.328-.986.328-1.26l.033-.31c-.077-.59-.13-.884-.164-.884-.207-.393-.338-.61-.393-.654-.295-.327-.454-.49-.476-.49-.633-.152-1.438-.23-2.412-.23zM225.96 64.618l.756.065.788-.065 1.543.132.788-.1.74.182.163.738-.213 2.248c0 .055-.01.082-.033.082l-.74.033a12.007 12.007 0 0 0-1.657-.13c-.47 0-1.023.048-1.658.145l.033.953.05-.017h.72l1.51.033 1.002-.033H230.293l.017.018v.017c0 .47.05 1.105.147 1.904l.033.296c-.11.493-.18.74-.213.74l-.115.015h-.328c-.47 0-.826-.01-1.067-.03l-.788.08c-.526 0-1.068-.037-1.626-.114v1.05h.017c.58 0 1.09.04 1.527.115l.738-.03.74.064 1.46-.147c.032.284.048.597.048.936v.51c0 .098.04.415.115.95-.12.504-.192.76-.213.772l-.74.164-2.362-.05-1.018.032h-.377l-1.034.065c-1.226-.044-1.838-.088-1.838-.13-.405-.09-.607-.144-.607-.166-.056-.698-.084-1.317-.084-1.853v-.016c0-.623.04-1.312.115-2.067l-.08-.788.015-.788-.05-.82c.09-1.225.132-1.98.132-2.265l-.065-.936c0-.646.05-1.188.147-1.625l.656-.113.706.016h.13c.485 0 .993-.02 1.53-.065zM243.897 64.618h.28l.985.164 1.512.032c.022 0 .087.598.197 1.79v.23l.034 1.196-.033.805.034.805-.033.787.132.82-.13.788.08.788c0 .34-.048.925-.147 1.757l-.066 1.378c0 .044-.155.104-.462.18-.088.066-.418.1-.99.1a5.562 5.562 0 0 0-1.285-.147c-.21 0-.51-.032-.906-.098v-.017c.065-.47.098-.766.098-.886v-.067c0-.34.017-.793.05-1.362l-.034-.77c0-.328.028-.854.083-1.575-.077-.503-.115-.805-.115-.902v-.656c-.055 0-.137.196-.246.59-.24.613-.433 1.21-.575 1.79-.098.59-.213 1.056-.345 1.395l-.443.984c-.154.536-.296.914-.428 1.133-.12.25-.192.377-.213.377-.56.055-1.128.098-1.708.13-.58-.087-.87-.142-.87-.163a60.192 60.192 0 0 0-.575-1.576c-.12-.524-.23-.864-.328-1.018-.22-.383-.34-.678-.362-.886-.087-.23-.208-.7-.36-1.41-.264-.92-.406-1.38-.428-1.38-.055.02-.082.115-.082.28l-.033.507.082.772c0 .405-.033.936-.1 1.593.034.58.077 1.104.132 1.575l-.034.82c.13.46.197.717.197.77l-.74.133-.72-.065c-.7.087-1.188.13-1.46.13l-.674-.295c-.067-.328-.1-.902-.1-1.723v-.46c0-.13-.033-.438-.1-.92l.116-.804-.1-.804.034-.788-.065-.804.082-2.56.098-.642-.115-.804c.142-.547.224-.82.246-.82.8-.11 1.598-.165 2.396-.165l.804.13.855-.113c.516.13.774.213.774.246.24.524.362.848.362.968.077.352.164.604.263.756.175.307.262.553.262.738.044.405.1.64.165.706.22.448.33.75.33.903.065.307.158.535.28.69.164.294.268.557.31.786l.1.344h.033c.307-.7.537-1.39.69-2.067l.28-.936c.086-.524.224-1.06.41-1.608.197-.438.296-.826.296-1.165l.033-.196c1.077-.14 1.838-.212 2.287-.212zM255.193 64.29h.59c.647.12 1.09.196 1.33.23.273 0 .613.075 1.018.23.11 0 .335.136.674.41.602.403.935.65 1 .737.384.394.663.744.838 1.05.055.065.224.443.51 1.133.174.35.262.558.262.624v.656l.115 1.838c-.1.646-.22 1.22-.362 1.724-.24.547-.433.902-.575 1.066-.065.154-.285.4-.656.74l-.886.787c-.458.175-.962.41-1.51.705-.502.132-.842.197-1.017.197h-1.346c-.13 0-.454.05-.968.147-.592-.11-1.435-.312-2.53-.607l-1.427-1.018c-.383-.428-.575-.663-.575-.706-.492-.94-.738-1.43-.738-1.46l-.246-1.61.05-.836-.034-.903.017-.755c.263-.667.394-1.028.394-1.083.077-.405.16-.64.247-.706.25-.403.427-.628.525-.672.273-.175.585-.448.936-.82a.818.818 0 0 1 .443-.33c.285-.163.625-.3 1.02-.41l1.13-.31h.576l1.197-.05zm-.148 3.644l-.77-.05c-.428.253-.668.405-.723.46-.317.427-.476.673-.476.738-.142.307-.213.51-.213.607l-.033.655c.033.613.066.92.1.92.13.416.24.673.327.77.208.34.36.51.46.51.35.165.568.247.656.247l.673.065c.613-.033.92-.076.92-.132.415-.142.623-.234.623-.278.283-.45.426-.695.426-.74.13-.35.25-.81.36-1.377-.043-.592-.108-.957-.196-1.1-.088-.307-.192-.51-.312-.607-.22-.285-.405-.454-.558-.51l-.476-.246-.79.067zM268.19 64.29h1.527c.7.065 1.132.126 1.296.18.33.077.607.18.837.313.755.36 1.138.563 1.148.607l.477.558v.05c-.264.394-.57.798-.92 1.214-.383.318-.694.64-.935.97l-.542.655h-.017c-.228-.427-.36-.64-.393-.64a8.798 8.798 0 0 0-.74-.197c-.404 0-.913.038-1.525.114l-.673.28-.51.558-.263.705.017.805-.033.755c.242.427.515.864.822 1.313.492.186.77.278.837.278.557.044 1.017.088 1.378.132.427-.263.662-.42.706-.477l.377-.524c.504.458.79.78.855.967.066.11.34.416.82.92.284.34.542.672.772 1-.297.405-.493.65-.592.74-.46.338-.728.508-.804.508-.382.164-.875.312-1.477.443h-.542l-1.066.032-.016.017h-.017l-.82-.082-.722.017h-.082c-.47-.11-.777-.203-.92-.28l-1.476-.72c-.405-.34-.635-.543-.69-.608a6.962 6.962 0 0 1-.688-1.018l-.59-.97c-.122-.49-.182-.895-.182-1.213 0-.23-.038-.64-.115-1.23 0-.82.11-1.68.328-2.577.197-.47.432-.903.706-1.297.02-.067.256-.318.705-.757.427-.37.678-.562.755-.574.285-.12.733-.323 1.346-.608 1.043-.242 1.59-.363 1.645-.363zM276.53 64.618c.426.065.962.11 1.607.132l.837-.115.805.23h.245c.896 0 1.575.03 2.035.098.438.175.678.273.722.295.48.416.77.717.87.902.153.176.317.455.492.838l.115.723-.034.723h-.017v.017l.08.77c-.13.57-.218.855-.262.855-.35.35-.684.71-1 1.082l-.74.247c.417.547.838 1.23 1.265 2.052.394.404.602.673.624.804l.984 1.724c-.415.13-.754.197-1.017.197l-.41.05a62.797 62.797 0 0 0-2.216-.115l-.77-.114c-.362-.82-.718-1.48-1.067-1.985-.317-.514-.657-1.187-1.018-2.02h-.017l-.1.82.034.806-.05.805.08.805-.03.77a12.5 12.5 0 0 1-1.48.148c-.645 0-1.317-.05-2.018-.147l-.18-.05c-.045-.228-.078-.61-.1-1.147 0-.273-.02-.667-.065-1.182l.082-3.15.016-.05-.065-.82.083-.787a12.81 12.81 0 0 1-.082-.985v-1.313c0-.58.055-1.143.165-1.69.21-.003.74-.075 1.594-.217zm1.985 3.135h-.016v.017l-.067.854.115.902.723.05.903-.28.46-.705-.345-.804h-.624l-1.1-.032h-.05zM292.926 64.618c.536.11.804.187.804.23l.69 1.46c.13.536.262.914.393 1.133.1.208.247.603.443 1.183.317.547.586 1.11.805 1.69l.772 2.035c.12.492.273.93.46 1.312.054.088.147.405.278.952.273.492.41.86.41 1.1l.082.378c-.36.088-.875.13-1.543.13l-.033.018-2.527-.147c-.033-.054-.115-.366-.247-.935l-.312-.755-.72.13-.724-.048-1.444.082-.706-.164a16.862 16.862 0 0 1-.492 1.69l-.017.017c-.667.055-1.45.082-2.347.082h-.935l-.804-.182v-.017c.252-.634.57-1.504.952-2.608.296-.68.52-1.313.673-1.904.23-.448.477-1.04.74-1.772.12-.263.277-.694.475-1.297l.738-1.445.51-1.493.41-.673c.688-.09 1.214-.132 1.575-.132l.805.05.838-.1zm-1.297 4.153c-.188.385-.34.805-.46 1.265-.22.515-.33.81-.33.886l-.08.608h.016l.788.017.984-.05a5.474 5.474 0 0 1-.345-1.148c0-.12-.13-.486-.394-1.1l-.165-.476h-.016zM305.3 64.618l.855.1.673-.018c.536.087.805.137.805.147l.05.656-.018 1.494c-.02.668-.055 1-.1 1l-.64-.113-.918.05h-.788l-.41.015c.098.68.146 1.22.146 1.624l-.065.805c.022.995.05 1.837.083 2.526v.345c0 .308-.055.686-.164 1.134l.064.804-.082.82c-.504.045-.984.12-1.444.23-.492-.076-.805-.115-.936-.115h-.542c-.503-.065-.755-.114-.755-.147v-.328c0-.34-.027-.755-.082-1.247l.065-.804-.065-.804.082-.805-.164-.804.066-.805-.032-.805c.02-.645.055-1.17.1-1.575l-2.07-.114-.64.05v-.018l-.213-.722c.034-.624.05-1.154.05-1.592.077-.537.132-.805.165-.805l.722-.164 1.51.065.017.017h.017l.79-.066.786.065 3.085-.097zM310.52 64.618c1.15.032 1.724.065 1.724.1.405.087.607.142.607.163l.034.888-.082 1.985v.196l.05.886a18.62 18.62 0 0 0-.066 1.38c0 .645.038 1.69.114 3.134v.23l-.098.836.082.805c-.044.526-.082.79-.115.79-.46.12-.718.18-.772.18h-.558l-.936.05c-.536 0-1.013-.072-1.428-.214l-.115-.805.083-.82a28.4 28.4 0 0 0-.132-1.592l.083-.804-.032-.805.033-.772-.032-.804.066-1.593-.065-.803v-.196c0-.722.044-1.46.132-2.216.722-.13 1.198-.196 1.428-.196zM320.02 64.29h1.527c.7.065 1.133.126 1.297.18.328.077.607.18.837.313.756.36 1.14.563 1.15.607l.476.558v.05c-.263.394-.568.798-.92 1.214-.382.318-.694.64-.935.97l-.54.655h-.017c-.23-.427-.36-.64-.395-.64a8.698 8.698 0 0 0-.738-.197c-.405 0-.914.038-1.526.114l-.673.28-.508.558-.263.705.016.805-.033.755c.24.427.515.864.82 1.313.493.186.77.278.838.278a33.45 33.45 0 0 1 1.38.132c.426-.263.66-.42.705-.477l.378-.524c.503.458.787.78.854.967.065.11.34.416.82.92.284.34.542.672.77 1-.295.405-.49.65-.59.74-.46.338-.728.508-.805.508-.383.164-.875.312-1.477.443h-.542l-1.066.032-.017.017h-.017l-.82-.082-.723.017h-.082c-.47-.11-.777-.203-.92-.28l-1.477-.72c-.403-.34-.634-.543-.688-.608a6.947 6.947 0 0 1-.688-1.018l-.59-.97c-.122-.49-.182-.895-.182-1.213 0-.23-.04-.64-.115-1.23 0-.82.11-1.68.328-2.577.197-.47.433-.903.706-1.297.022-.067.258-.318.707-.757.427-.37.678-.562.755-.574.284-.12.732-.323 1.346-.608 1.042-.242 1.59-.363 1.643-.363zM333.498 70.148c.568.077.854.132.854.165l.114.82a18.64 18.64 0 0 0-.114 1.724h-.787l-1.773.114a25.473 25.473 0 0 1-1.707-.13v-.706l-.082-1.018c.043-.558.076-.837.1-.837l.95-.05c.788.01 1.313.022 1.576.032l.868-.114zM341.844 64.618a19.52 19.52 0 0 0 1.438.065l.082.017.784-.032c.59.043 1.166.064 1.724.064l1.313-.05c.503.1.755.16.755.182v.51l.065 1.46v.18c-.055.635-.1.953-.13.953l-1.512-.05-.77.05-.788-.033-.74.033.018.607-.017.557h.017l.87-.08h1.69c.547.076.82.13.82.163l.115.69a34.89 34.89 0 0 0-.065 1.723l-.065.575h-.673l-1.05.1h-.74c-.13 0-.42-.027-.87-.083-.02.34-.038.936-.05 1.79a3.75 3.75 0 0 0-.048.656v1.312c0 .033-.376.104-1.127.214-.143.02-.496.037-1.062.048-.577-.02-.926-.065-1.046-.13-.294-.078-.44-.127-.44-.15l.032-.754-.065-.902.016-2.167.016-.114-.016-.163v-.51c0-.076-.05-.388-.148-.935l.082-.838-.017-.787.083-.77-.033-.806.017-.573c0-.328-.017-.673-.05-1.033l.114-.77c.555-.102 1.045-.172 1.47-.216zM352.946 64.618l.755.065.79-.065 1.542.132.788-.1.738.182.164.738-.214 2.248c0 .055-.01.082-.032.082l-.74.033a11.993 11.993 0 0 0-1.656-.13c-.47 0-1.023.048-1.657.145l.032.953.05-.017h.722l1.51.033 1-.033H357.28l.017.018v.017c0 .47.05 1.105.147 1.904l.033.296c-.11.493-.18.74-.214.74l-.114.015h-.33c-.47 0-.826-.01-1.066-.03l-.788.08c-.524 0-1.066-.037-1.624-.114v1.05h.016c.58 0 1.09.04 1.526.115l.74-.03.737.064 1.462-.147c.032.284.05.597.05.936v.51c0 .098.037.415.114.95-.12.504-.19.76-.214.772l-.738.164-2.363-.05-1.017.032h-.378l-1.034.065c-1.225-.044-1.837-.088-1.837-.13-.405-.09-.607-.144-.607-.166-.055-.698-.082-1.317-.082-1.853v-.016c0-.623.038-1.312.115-2.067l-.083-.788.017-.788-.05-.82c.088-1.225.132-1.98.132-2.265l-.066-.936c0-.646.05-1.188.148-1.625l.656-.113.706.016h.13c.48 0 .99-.02 1.526-.065zM363.303 64.29l.787.1.82-.05c.504.087 1.057.163 1.658.228.515.24.8.39.854.443.317.242.574.472.77.69l.28.328v.017l-1.313 1.493c-.36.384-.68.668-.952.854l-.1.082c-.766-.612-1.22-.918-1.36-.918l-.674-.066c-.405.076-.607.12-.607.13l-.36.43c.754.513 1.143.77 1.164.77.67.13 1.232.273 1.69.426.516.24.783.39.806.443.448.37.815.75 1.1 1.132l.296.738v.755c-.11 1.226-.203 1.84-.28 1.84 0 .075-.228.497-.688 1.263-.952.602-1.537.913-1.756.936-.208.087-.56.152-1.05.196l-.182.017-1.05-.05h-1.116c-.723-.065-1.084-.13-1.084-.196l-1.33-.557c-.36-.24-.623-.46-.787-.657-.187-.186-.28-.295-.28-.328.33-.46.52-.71.575-.755.404-.306.64-.498.706-.574.22-.384.41-.647.575-.79.295-.272.46-.41.492-.41.514.428.974.734 1.38.92.064.088.288.132.672.132l.442.016.87-.524c-.35-.383-.548-.575-.592-.575a21.84 21.84 0 0 1-1.477-.624c-.548-.1-.85-.175-.903-.23a30.15 30.15 0 0 0-1.28-.82c-.383-.536-.574-.842-.574-.92-.13-.305-.197-.475-.197-.508.065-.602.098-1.127.098-1.576.12-.58.263-1.05.427-1.41 0-.066.203-.297.607-.69.46-.415.75-.624.87-.624.295-.164.71-.322 1.247-.476l.803-.053zM375.957 64.618l.854.1.674-.018c.536.087.805.137.805.147l.048.656-.017 1.494c-.02.668-.054 1-.098 1l-.64-.113-.92.05h-.787l-.41.015c.1.68.147 1.22.147 1.624l-.065.805c.02.995.05 1.837.082 2.526v.345c0 .308-.056.686-.165 1.134l.065.804-.082.82c-.504.045-.984.12-1.444.23-.492-.076-.805-.115-.936-.115h-.542c-.503-.065-.755-.114-.755-.147v-.328c0-.34-.026-.755-.08-1.247l.064-.804-.065-.804.08-.805-.163-.804.065-.805-.032-.805c.02-.645.055-1.17.1-1.575l-2.07-.114-.64.05v-.018l-.213-.722c.033-.624.05-1.154.05-1.592.076-.537.13-.805.164-.805l.723-.164 1.51.065.017.017h.017l.788-.066.787.065 3.085-.097zM381.176 64.618c1.15.032 1.724.065 1.724.1.405.087.607.142.607.163l.033.888-.082 1.985v.196l.05.886a18.62 18.62 0 0 0-.066 1.38c0 .645.038 1.69.114 3.134v.23l-.098.836.082.805c-.044.526-.082.79-.115.79-.46.12-.717.18-.77.18h-.56l-.935.05c-.536 0-1.013-.072-1.428-.214l-.115-.805.082-.82a28.4 28.4 0 0 0-.133-1.592l.082-.804-.033-.805.032-.772-.033-.804.065-1.593-.065-.803v-.196c0-.722.043-1.46.13-2.216.724-.13 1.2-.196 1.43-.196zM393.388 64.618l2.807.082.574.065c-.066.56-.11.848-.133.87-.273.47-.41.77-.41.903-.076.492-.312 1.258-.706 2.297-.14.263-.3.695-.475 1.297-.263.48-.394.782-.394.902-.076.492-.147.74-.213.74-.252.447-.377.748-.377.9-.22.833-.416 1.363-.59 1.593-.1.132-.215.477-.346 1.034-.263.505-.416.756-.46.756l-.722.164-.87-.032-.837.05c-.657 0-1.127-.045-1.412-.132-.186-.022-.278-.07-.278-.148-.405-.952-.695-1.7-.87-2.248-.22-.395-.492-1.138-.82-2.232A13.076 13.076 0 0 1 386.23 70c-.24-1.017-.476-1.772-.705-2.265a20.147 20.147 0 0 1-.46-1.526c-.163-.406-.322-.87-.476-1.397l.05-.032c.513-.043 1.05-.07 1.607-.08l.377.016h.328l1.067-.05c.535.088.803.147.803.18l.477 1.527c.055.558.114.897.18 1.018.296.7.52 1.48.674 2.332.055.383.142.722.263 1.018.23.656.355.995.377 1.018.48-1.795.723-2.823.723-3.086.207-.492.312-.77.312-.837.043-.57.092-.913.146-1.034.405-1.28.607-1.94.607-1.985l.805-.197zM399.41 64.618c1.15.032 1.724.065 1.724.1.405.087.607.142.607.163l.034.888-.082 1.985v.196l.05.886a18.62 18.62 0 0 0-.066 1.38c0 .645.038 1.69.114 3.134v.23l-.098.836.082.805c-.044.526-.082.79-.115.79-.46.12-.718.18-.772.18h-.558l-.936.05c-.536 0-1.013-.072-1.428-.214l-.115-.805.083-.82a28.4 28.4 0 0 0-.132-1.592l.083-.804-.032-.805.033-.772-.032-.804.066-1.593-.065-.803v-.196c0-.722.044-1.46.132-2.216.723-.13 1.2-.196 1.428-.196zM410.145 64.618l.854.1.672-.018c.536.087.805.137.805.147l.05.656-.018 1.494c-.022.668-.056 1-.1 1l-.64-.113-.92.05h-.787l-.41.015c.1.68.147 1.22.147 1.624l-.065.805c.02.995.05 1.837.082 2.526v.345c0 .308-.055.686-.164 1.134l.065.804-.082.82c-.504.045-.984.12-1.444.23-.492-.076-.805-.115-.936-.115h-.542c-.503-.065-.755-.114-.755-.147v-.328c0-.34-.028-.755-.083-1.247l.065-.804-.065-.804.082-.805-.165-.804.065-.805-.032-.805c.02-.645.055-1.17.1-1.575l-2.07-.114-.64.05v-.018l-.213-.722c.033-.624.05-1.154.05-1.592.076-.537.13-.805.164-.805l.72-.164 1.51.065.018.017h.017l.788-.066.787.065 3.085-.097zM415.362 64.618c1.15.032 1.724.065 1.724.1.405.087.607.142.607.163l.033.888-.082 1.985v.196l.05.886a18.62 18.62 0 0 0-.066 1.38c0 .645.038 1.69.114 3.134v.23l-.098.836.082.805c-.044.526-.082.79-.115.79-.46.12-.716.18-.77.18h-.558l-.936.05c-.536 0-1.013-.072-1.428-.214l-.115-.805.082-.82a28.4 28.4 0 0 0-.132-1.592l.082-.804-.032-.805.032-.772-.032-.804.065-1.593-.065-.803v-.196c0-.722.043-1.46.13-2.216.724-.13 1.2-.196 1.43-.196zM423.11 64.618l.754.065.788-.065 1.543.132.788-.1.738.182.165.738-.214 2.248c0 .055-.01.082-.03.082l-.74.033a11.993 11.993 0 0 0-1.657-.13c-.47 0-1.023.048-1.657.145l.032.953.05-.017h.722l1.51.033 1-.033H427.444l.017.018v.017c0 .47.05 1.105.147 1.904l.033.296c-.11.493-.18.74-.214.74l-.114.015h-.328c-.47 0-.827-.01-1.067-.03l-.788.08c-.525 0-1.067-.037-1.625-.114v1.05h.016c.58 0 1.09.04 1.527.115l.74-.03.737.064 1.46-.147c.033.284.05.597.05.936v.51c0 .098.038.415.115.95-.122.504-.192.76-.215.772l-.738.164-2.363-.05-1.018.032h-.378l-1.034.065c-1.226-.044-1.838-.088-1.838-.13-.405-.09-.607-.144-.607-.166-.056-.698-.083-1.317-.083-1.853v-.016c0-.623.038-1.312.115-2.067l-.082-.788.017-.788-.05-.82c.088-1.225.132-1.98.132-2.265l-.067-.936c0-.646.05-1.188.148-1.625l.657-.113.706.016h.13c.48 0 .99-.02 1.526-.065zM433.467 64.29l.787.1.82-.05c.504.087 1.057.163 1.658.228.515.24.8.39.854.443.317.242.574.472.77.69l.28.328v.017l-1.313 1.493c-.36.384-.68.668-.95.854l-.1.082c-.767-.612-1.22-.918-1.362-.918l-.672-.066c-.405.076-.607.12-.607.13l-.36.43c.755.513 1.144.77 1.165.77.668.13 1.23.273 1.69.426.515.24.782.39.805.443.448.37.815.75 1.1 1.132l.296.738v.755c-.11 1.226-.203 1.84-.28 1.84 0 .075-.228.497-.688 1.263-.952.602-1.537.913-1.756.936-.208.087-.56.152-1.05.196l-.182.017-1.05-.05h-1.116c-.723-.065-1.084-.13-1.084-.196l-1.33-.557c-.36-.24-.623-.46-.787-.657-.186-.186-.278-.295-.278-.328.328-.46.52-.71.574-.755.403-.306.64-.498.705-.574.22-.384.41-.647.574-.79.294-.272.458-.41.49-.41.515.428.975.734 1.38.92.065.088.29.132.673.132l.443.016.87-.524c-.35-.383-.548-.575-.592-.575a21.84 21.84 0 0 1-1.477-.624c-.548-.1-.85-.175-.903-.23a30.15 30.15 0 0 0-1.28-.82c-.383-.536-.574-.842-.574-.92-.13-.305-.197-.475-.197-.508.066-.602.1-1.127.1-1.576.12-.58.262-1.05.426-1.41 0-.066.202-.297.606-.69.46-.415.75-.624.87-.624.295-.164.71-.322 1.247-.476l.804-.053zM448.78 63.65c.72.064 1.202.158 1.443.278.273.077.673.252 1.198.525l.018.017c-.153.535-.28.875-.378 1.018-.23.35-.355.662-.377.936-.033.186-.12.39-.263.607-.164.285-.246.48-.246.59-.066.483-.148.778-.247.888-.164.252-.322.662-.476 1.23-.24.438-.432.903-.573 1.396-.273.56-.45.958-.525 1.198-.1.273-.273.684-.525 1.23-.35.92-.536 1.456-.558 1.61-.09.458-.204.76-.346.9a3.428 3.428 0 0 0-.328.756c-.088.24-.138.366-.148.378-.688-.033-1.214-.104-1.575-.214a.94.94 0 0 1-.492-.23c-.316-.207-.486-.327-.508-.36.11-.525.24-.93.394-1.215.076-.152.246-.568.51-1.247.218-.394.327-.68.327-.854.077-.372.17-.635.28-.788.14-.24.327-.673.557-1.297.296-1.017.52-1.618.674-1.804.108-.175.23-.54.36-1.1.328-.46.536-.875.624-1.248l.328-1.033c.22-.383.404-.848.558-1.396.175-.514.273-.77.295-.77zM459.25 64.618h.36l1.773.164h.54c.636.065.953.12.953.164.395.143.717.307.97.492.174.065.403.302.688.706.043 0 .12.208.23.623.043.11.064.187.064.23v.345l.017.394c-.044.635-.088.952-.13.952-.177.427-.313.667-.412.722-.317.296-.498.443-.54.443-.385.13-.592.213-.625.246 0 .054.06.093.18.114a8.19 8.19 0 0 1 1.2.607c.338.33.508.516.508.56l.263.59c-.023 1.14-.062 1.707-.116 1.707-.13.383-.213.607-.246.673a10.03 10.03 0 0 1-.476.64c-.34.308-.53.466-.575.477-.524.24-.886.36-1.083.36 0 .045-.694.11-2.084.198-.525.055-1.023.125-1.494.213l-1.887-.082c-.67-.088-1.16-.13-1.48-.13-.02 0-.06-.428-.114-1.28-.02-.188-.038-.564-.05-1.134l.034-.82a85.192 85.192 0 0 1-.083-3.3c0-1.018.033-1.794.1-2.33l-.066-.788c.022-.71.072-1.24.148-1.592.416-.1 1.346-.147 2.79-.147l.642-.017zm.082 3.053l-.082.69.082.688.952-.032c.448-.11.673-.175.673-.196.164-.318.246-.493.246-.525-.187-.36-.296-.542-.328-.542-.372-.065-.574-.11-.607-.132l-.936.05zm0 3.874v.017l-.082.756.082.755.13-.015c.734 0 1.2-.04 1.397-.115.196-.044.295-.093.295-.147a4.71 4.71 0 0 0 .262-.51l-.377-.606-.738-.164-.97.03zM468.852 64.618c.427.065.963.11 1.608.132l.837-.115.805.23h.246c.896 0 1.575.03 2.035.098.438.175.678.273.722.295.48.416.77.717.87.902.153.176.317.455.492.838l.115.723-.033.723h-.018v.017l.082.77c-.13.57-.22.855-.263.855-.35.35-.683.71-1 1.082l-.738.247c.416.547.837 1.23 1.264 2.052.394.404.602.673.624.804l.984 1.724c-.416.13-.755.197-1.018.197l-.41.05a62.797 62.797 0 0 0-2.216-.115l-.77-.114c-.362-.82-.718-1.48-1.067-1.985-.317-.514-.657-1.187-1.018-2.02h-.017l-.1.82.034.806-.05.805.082.805-.032.77a12.5 12.5 0 0 1-1.478.148c-.646 0-1.318-.05-2.02-.147l-.18-.05c-.044-.228-.077-.61-.1-1.147 0-.273-.02-.667-.064-1.182l.082-3.15.017-.05-.066-.82.082-.787a12.81 12.81 0 0 1-.082-.985v-1.313c0-.58.054-1.143.164-1.69.21-.003.74-.075 1.594-.217zm1.985 3.135h-.016v.017l-.065.854.115.902.723.05.902-.28.46-.705-.345-.804h-.624l-1.1-.032h-.05zM487.792 64.618c.427 0 .93.087 1.51.263l.017.017v.018c0 .492.048.974.146 1.443-.065.492-.1 1.057-.1 1.69v.526l.116.886-.05.755.017.787c-.1.472-.148.74-.148.805v.64l.017.115-.493 1.658c-.263.372-.62.804-1.067 1.297l-.59.492c-.482.14-1.287.32-2.413.54l-1.05.017h-.28c-.57 0-1.253-.11-2.052-.328-.536-.198-.854-.35-.95-.46-.242-.132-.46-.313-.658-.542-.284-.284-.432-.487-.442-.607-.416-.874-.624-1.427-.624-1.657l-.098-.442-.033-.853.016-.592-.1-.87.083-.754-.148-.787.147-2.265.016-.017v-.016l-.114-.77c.076-.43.13-.663.164-.708.722-.152 1.236-.23 1.542-.23.887 0 1.647.065 2.282.197v1.41l-.082 1.02.147 1.59-.017.165v.51c0 .098-.038.42-.115.97.088.93.132 1.492.132 1.688.394.46.602.69.623.69l.82.064c.613-.043.92-.082.92-.114l.542-.64.032-1.134v-.492c0-.164.033-.453.1-.87v-.065l-.1-2.38.05-.82-.082-.788c.065-.535.108-.804.13-.804.405-.11.642-.164.707-.164h.656l.87-.082zM495.08 64.29l.786.1.82-.05c.504.087 1.057.163 1.658.228.515.24.8.39.854.443.317.242.574.472.77.69l.28.328v.017l-1.313 1.493c-.36.384-.68.668-.95.854l-.1.082c-.767-.612-1.22-.918-1.362-.918l-.673-.066c-.405.076-.607.12-.607.13l-.36.43c.754.513 1.143.77 1.164.77.668.13 1.23.273 1.69.426.515.24.782.39.805.443.448.37.815.75 1.1 1.132l.296.738v.755c-.11 1.226-.203 1.84-.28 1.84 0 .075-.228.497-.688 1.263-.952.602-1.537.913-1.756.936-.208.087-.56.152-1.05.196l-.182.017-1.05-.05h-1.116c-.723-.065-1.084-.13-1.084-.196l-1.33-.557c-.36-.24-.623-.46-.787-.657-.186-.186-.278-.295-.278-.328.328-.46.52-.71.574-.755.405-.306.64-.498.707-.574.22-.384.41-.647.574-.79.296-.272.46-.41.493-.41.514.428.974.734 1.38.92.064.088.288.132.672.132l.443.016.87-.524c-.35-.383-.548-.575-.592-.575a21.84 21.84 0 0 1-1.477-.624c-.55-.1-.85-.175-.904-.23a30.15 30.15 0 0 0-1.28-.82c-.383-.536-.574-.842-.574-.92-.13-.305-.197-.475-.197-.508.066-.602.1-1.127.1-1.576.12-.58.262-1.05.426-1.41 0-.066.204-.297.608-.69.46-.415.75-.624.87-.624.295-.164.71-.322 1.247-.476l.804-.053zM505.206 64.29l.787.1.82-.05c.504.087 1.057.163 1.658.228.516.24.8.39.855.443.317.242.574.472.77.69l.28.328v.017l-1.313 1.493c-.36.384-.68.668-.95.854l-.1.082c-.767-.612-1.22-.918-1.362-.918l-.673-.066c-.405.076-.607.12-.607.13l-.36.43c.754.513 1.143.77 1.164.77.668.13 1.23.273 1.69.426.515.24.782.39.805.443.447.37.814.75 1.1 1.132l.295.738v.755c-.11 1.226-.203 1.84-.28 1.84 0 .075-.228.497-.688 1.263-.952.602-1.537.913-1.756.936-.207.087-.558.152-1.05.196l-.18.017-1.052-.05h-1.115c-.723-.065-1.084-.13-1.084-.196l-1.33-.557c-.36-.24-.624-.46-.788-.657-.186-.186-.278-.295-.278-.328.328-.46.52-.71.574-.755.404-.306.64-.498.706-.574.22-.384.41-.647.574-.79.295-.272.46-.41.492-.41.514.428.974.734 1.38.92.064.088.288.132.672.132l.443.016.87-.524c-.35-.383-.548-.575-.592-.575a21.84 21.84 0 0 1-1.477-.624c-.548-.1-.85-.175-.903-.23a30.15 30.15 0 0 0-1.28-.82c-.383-.536-.574-.842-.574-.92-.132-.305-.198-.475-.198-.508.066-.602.1-1.127.1-1.576.12-.58.262-1.05.426-1.41 0-.066.203-.297.607-.69.46-.415.75-.624.87-.624.295-.164.71-.322 1.247-.476l.804-.053zM514.872 64.618l.755.065.788-.065 1.543.132.788-.1.738.182.164.738-.214 2.248c0 .055-.01.082-.032.082l-.74.033a11.993 11.993 0 0 0-1.656-.13c-.47 0-1.023.048-1.657.145l.03.953.05-.017h.723l1.51.033 1-.033H519.207l.017.018v.017c0 .47.05 1.105.147 1.904l.033.296c-.11.493-.18.74-.214.74l-.115.015h-.328c-.47 0-.827-.01-1.067-.03l-.788.08c-.524 0-1.066-.037-1.624-.114v1.05h.016c.58 0 1.09.04 1.526.115l.74-.03.737.064 1.46-.147c.033.284.05.597.05.936v.51c0 .098.038.415.115.95-.12.504-.19.76-.214.772l-.738.164-2.363-.05-1.018.032h-.38l-1.034.065c-1.226-.044-1.838-.088-1.838-.13-.405-.09-.607-.144-.607-.166-.054-.698-.08-1.317-.08-1.853v-.016c0-.623.037-1.312.114-2.067l-.082-.788.017-.788-.05-.82c.087-1.225.13-1.98.13-2.265l-.065-.936c0-.646.05-1.188.148-1.625l.656-.113.705.016h.13c.482 0 .99-.02 1.527-.065zM524.753 64.618c.504.12.755.196.755.23v.655l-.05 1.182v.492l-.016.018.017.016v.034c0 .525.032 1.05.098 1.576l-.05.787.017.706.017.082c-.088.755-.13 1.29-.13 1.608l.08.788.74.05.754-.033.738.115 1.51-.197.132.87-.05.837.05.805c-.12.525-.19.788-.213.788l-.1.016c-.34 0-.798.04-1.378.116l-1.478.082-.755-.1a16.26 16.26 0 0 1-1.51.083c-.273 0-.826-.06-1.657-.18l-.59-.032-.018-.05.017-.722-.148-.82.132-.772c0-1.313-.022-2.39-.066-3.233l.033-1.33v-.064c0-.415-.017-1.028-.05-1.84 0-.556.04-1.075.115-1.558l-.032-.755c0-.022.295-.06.886-.114l.64-.116.772.05.787-.066zM534.24 64.29l.786.1.82-.05c.504.087 1.057.163 1.658.228.515.24.8.39.854.443.317.242.574.472.77.69l.28.328v.017l-1.313 1.493c-.36.384-.68.668-.95.854l-.1.082c-.767-.612-1.22-.918-1.362-.918l-.673-.066c-.405.076-.607.12-.607.13l-.36.43c.754.513 1.143.77 1.164.77.668.13 1.23.273 1.69.426.515.24.782.39.805.443.448.37.815.75 1.1 1.132l.296.738v.755c-.11 1.226-.203 1.84-.28 1.84 0 .075-.228.497-.688 1.263-.952.602-1.537.913-1.756.936-.208.087-.56.152-1.05.196l-.182.017-1.05-.05h-1.116c-.723-.065-1.084-.13-1.084-.196l-1.33-.557c-.36-.24-.623-.46-.787-.657-.186-.186-.278-.295-.278-.328.328-.46.52-.71.574-.755.405-.306.64-.498.707-.574.22-.384.41-.647.574-.79.296-.272.46-.41.493-.41.514.428.974.734 1.38.92.064.088.288.132.672.132l.443.016.87-.524c-.35-.383-.548-.575-.592-.575a21.84 21.84 0 0 1-1.477-.624c-.55-.1-.85-.175-.904-.23a30.15 30.15 0 0 0-1.28-.82c-.383-.536-.574-.842-.574-.92-.13-.305-.197-.475-.197-.508.066-.602.1-1.127.1-1.576.12-.58.262-1.05.426-1.41 0-.066.204-.297.608-.69.46-.415.75-.624.87-.624.295-.164.71-.322 1.247-.476l.804-.053z"/></g></svg>